<svg width="800" height="194" viewBox="0 0 800 194" fill="none" xmlns="http://www.w3.org/2000/svg">
<line x1="212" y1="78" x2="768" y2="78" stroke="#D3E3F0" stroke-width="2"/>
<line x1="212" y1="42" x2="426" y2="42" stroke="#D3E3F0" stroke-width="2"/>
<line x1="212" y1="114" x2="768" y2="114" stroke="#D3E3F0" stroke-width="2"/>
<line x1="212" y1="150" x2="768" y2="150" stroke="#D3E3F0" stroke-width="2"/>
<rect x="681" y="136" width="87" height="36" rx="8" fill="#D9E8F2"/>
<path d="M709.89 160L708.27 151H709.8L711.042 157.84H711.132L712.77 152.8H714.21L715.848 157.84H715.938L717.18 151H718.71L717.09 160H715.11L713.526 155.14H713.454L711.87 160H709.89ZM720.876 160L719.256 151H720.786L722.028 157.84H722.118L723.756 152.8H725.196L726.834 157.84H726.924L728.166 151H729.696L728.076 160H726.096L724.512 155.14H724.44L722.856 160H720.876ZM731.863 160L730.243 151H731.773L733.015 157.84H733.105L734.743 152.8H736.183L737.821 157.84H737.911L739.153 151H740.683L739.063 160H737.083L735.499 155.14H735.427L733.843 160H731.863Z" fill="#7B8A99"/>
<rect x="22" y="22" width="150" height="150" fill="#EDF5FA"/>
<rect x="0.5" y="0.5" width="799" height="193" stroke="#D3E3F0"/>
<g opacity="0.8">
<mask id="mask0" mask-type="alpha" maskUnits="userSpaceOnUse" x="22" y="22" width="150" height="150">
<rect x="22" y="22" width="150" height="150" fill="#EDF5FA"/>
</mask>
<g mask="url(#mask0)">
<path d="M130.372 64.9997C130.372 88.7478 149.623 107.999 173.371 107.999C197.119 107.999 216.371 88.7478 216.371 64.9997C216.371 41.2516 197.119 22 173.371 22C149.623 22 130.372 41.2516 130.372 64.9997Z" stroke="#CCDFED" stroke-width="0.70414" stroke-miterlimit="10"/>
<path d="M133.48 64.9994C133.48 87.0315 151.341 104.892 173.373 104.892C195.405 104.892 213.266 87.0315 213.266 64.9994C213.266 42.9673 195.405 25.1067 173.373 25.1067C151.341 25.1067 133.48 42.9673 133.48 64.9994Z" stroke="#CCDFED" stroke-width="0.68831" stroke-miterlimit="10"/>
<path d="M136.585 64.9998C136.585 85.316 153.054 101.785 173.371 101.785C193.687 101.785 210.156 85.316 210.156 64.9998C210.156 44.6836 193.687 28.2141 173.371 28.2141C153.054 28.2141 136.585 44.6836 136.585 64.9998Z" stroke="#CCDFED" stroke-width="0.67248" stroke-miterlimit="10"/>
<path d="M139.693 64.9995C139.693 83.5997 154.772 98.6782 173.372 98.6782C191.972 98.6782 207.051 83.5997 207.051 64.9995C207.051 46.3993 191.972 31.3208 173.372 31.3208C154.772 31.3208 139.693 46.3993 139.693 64.9995Z" stroke="#CCDFED" stroke-width="0.65665" stroke-miterlimit="10"/>
<path d="M142.798 64.9999C142.798 81.8842 156.485 95.5716 173.37 95.5716C190.254 95.5716 203.941 81.8842 203.941 64.9999C203.941 48.1156 190.254 34.4282 173.37 34.4282C156.485 34.4282 142.798 48.1156 142.798 64.9999Z" stroke="#CCDFED" stroke-width="0.64083" stroke-miterlimit="10"/>
<path d="M145.907 64.9996C145.907 80.1679 158.203 92.4643 173.371 92.4643C188.54 92.4643 200.836 80.1679 200.836 64.9996C200.836 49.8313 188.54 37.5349 173.371 37.5349C158.203 37.5349 145.907 49.8313 145.907 64.9996Z" stroke="#CCDFED" stroke-width="0.625" stroke-miterlimit="10"/>
<path d="M149.015 65C149.015 78.4524 159.92 89.3577 173.373 89.3577C186.825 89.3577 197.73 78.4524 197.73 65C197.73 51.5476 186.825 40.6423 173.373 40.6423C159.92 40.6423 149.015 51.5476 149.015 65Z" stroke="#CCDFED" stroke-width="0.60917" stroke-miterlimit="10"/>
<path d="M173.238 86.2495C184.974 86.3241 194.549 76.8704 194.623 65.1343C194.698 53.3981 185.244 43.8236 173.508 43.7491C161.772 43.6746 152.197 53.1282 152.123 64.8644C152.048 76.6006 161.502 86.175 173.238 86.2495Z" stroke="#CCDFED" stroke-width="0.59334" stroke-miterlimit="10"/>
<path d="M173.327 83.1436C183.348 83.1684 191.491 75.0653 191.516 65.0449C191.541 55.0244 183.437 46.8812 173.417 46.8564C163.397 46.8316 155.253 54.9347 155.229 64.9551C155.204 74.9755 163.307 83.1188 173.327 83.1436Z" stroke="#CCDFED" stroke-width="0.57751" stroke-miterlimit="10"/>
<path d="M158.333 65.0232C158.347 73.3276 165.09 80.0491 173.394 80.0359C181.699 80.0226 188.42 73.2798 188.407 64.9753C188.394 56.6708 181.651 49.9494 173.346 49.9626C165.042 49.9758 158.32 56.7187 158.333 65.0232Z" stroke="#CCDFED" stroke-width="0.56168" stroke-miterlimit="10"/>
<path d="M161.441 65.0701C161.48 71.6585 166.852 76.9682 173.441 76.9297C180.029 76.8911 185.339 71.5188 185.3 64.9304C185.262 58.342 179.889 53.0322 173.301 53.0708C166.713 53.1094 161.403 58.4816 161.441 65.0701Z" stroke="#CCDFED" stroke-width="0.54585" stroke-miterlimit="10"/>
<path d="M164.548 65.0914C164.599 69.9637 168.589 73.8727 173.462 73.8224C178.334 73.772 182.243 69.7814 182.193 64.9091C182.142 60.0367 178.152 56.1277 173.279 56.1781C168.407 56.2284 164.498 60.219 164.548 65.0914Z" stroke="#CCDFED" stroke-width="0.53002" stroke-miterlimit="10"/>
<path d="M167.656 65.0853C167.704 68.2416 170.301 70.7617 173.457 70.7143C176.613 70.6668 179.133 68.0696 179.086 64.9133C179.038 61.757 176.441 59.2369 173.285 59.2843C170.129 59.3318 167.609 61.929 167.656 65.0853Z" stroke="#CCDFED" stroke-width="0.5142" stroke-miterlimit="10"/>
<path d="M170.762 65.0521C170.791 66.4925 171.982 67.6368 173.422 67.608C174.862 67.5792 176.007 66.3882 175.978 64.9478C175.949 63.5074 174.758 62.3631 173.318 62.3919C171.877 62.4207 170.733 63.6117 170.762 65.0521Z" stroke="#CCDFED" stroke-width="0.49837" stroke-miterlimit="10"/>
<path d="M173.621 22.0004C173.61 22.0004 173.599 22 173.587 22C167.863 22 162.195 23.117 156.907 25.2873C151.619 27.4575 146.814 30.6385 142.766 34.6486C138.719 38.6587 135.508 43.4194 133.318 48.6589C131.127 53.8984 130 59.514 130 65.1851L173.621 65.1851L173.621 22.0004Z" fill="#CCDFED" fill-opacity="0.6"/>
<path d="M69.4755 172.4L69.4755 162.772C69.9668 165.208 70.2689 167.679 70.3789 170.162L70.3789 172.4L69.4755 172.4Z" fill="#CCDFED" fill-opacity="0.6"/>
<path d="M66.3065 172.4L66.3065 152.835C66.6306 153.557 66.9334 154.288 67.2148 155.03L67.2148 172.4L66.3065 172.4Z" fill="#CCDFED" fill-opacity="0.6"/>
<path d="M63.1474 172.4L63.1474 146.865C63.4616 147.36 63.7611 147.861 64.0508 148.372L64.0508 172.4L63.1474 172.4Z" fill="#CCDFED" fill-opacity="0.6"/>
<path d="M59.9794 172.4L59.9794 142.362C60.2887 142.75 60.5882 143.143 60.8828 143.536L60.8828 172.4L59.9794 172.4Z" fill="#CCDFED" fill-opacity="0.6"/>
<path d="M56.8114 172.4L56.8114 138.754C57.1208 139.068 57.4203 139.387 57.7148 139.711L57.7148 172.4L56.8114 172.4Z" fill="#CCDFED" fill-opacity="0.6"/>
<path d="M53.6464 172.4L53.6464 135.759C53.9508 136.019 54.2552 136.289 54.5547 136.559L54.5547 172.4L53.6464 172.4Z" fill="#CCDFED" fill-opacity="0.6"/>
<path d="M50.4872 172.4L50.4872 133.25C50.7916 133.471 51.0911 133.692 51.3906 133.922L51.3906 172.4L50.4872 172.4Z" fill="#CCDFED" fill-opacity="0.6"/>
<path d="M47.3193 172.4L47.3193 131.129C47.6237 131.31 47.9232 131.502 48.2227 131.698L48.2227 172.4L47.3193 172.4Z" fill="#CCDFED" fill-opacity="0.6"/>
<path d="M44.1513 172.4L44.1513 129.342C44.4557 129.499 44.7601 129.656 45.0547 129.818L45.0547 172.4L44.1513 172.4Z" fill="#CCDFED" fill-opacity="0.6"/>
<path d="M40.9823 172.4L40.9823 127.854C41.2867 127.982 41.5911 128.114 41.8906 128.252L41.8906 172.4L40.9823 172.4Z" fill="#CCDFED" fill-opacity="0.6"/>
<path d="M37.8193 172.4L37.8193 126.636C38.1237 126.739 38.4232 126.847 38.7227 126.955L38.7227 172.4L37.8193 172.4Z" fill="#CCDFED" fill-opacity="0.6"/>
<path d="M34.6552 172.4L34.6552 125.664C34.9596 125.743 35.2591 125.831 35.5586 125.919L35.5586 172.4L34.6552 172.4Z" fill="#CCDFED" fill-opacity="0.6"/>
<path d="M31.4872 172.4L31.4872 124.923C31.7867 124.982 32.0911 125.045 32.3906 125.114L32.3906 172.4L31.4872 172.4Z" fill="#CCDFED" fill-opacity="0.6"/>
<path d="M28.3222 172.4L28.3222 124.407C28.6266 124.446 28.931 124.486 29.2305 124.535L29.2305 172.4L28.3222 172.4Z" fill="#CCDFED" fill-opacity="0.6"/>
<path d="M25.1591 172.4L25.1591 124.103C25.4635 124.117 25.763 124.142 26.0625 124.172L26.0625 172.4L25.1591 172.4Z" fill="#CCDFED" fill-opacity="0.6"/>
<path d="M21.9999 172.4L21.9999 124.005C22.0098 124.005 22.0245 124 22.0343 124C22.324 124 22.6137 124.005 22.8984 124.009L22.8984 172.4L21.9999 172.4Z" fill="#CCDFED" fill-opacity="0.6"/>
<path d="M97 164C101.418 164 105 160.418 105 156C105 151.582 101.418 148 97 148C92.5817 148 89 151.582 89 156C89 160.418 92.5817 164 97 164Z" fill="#CCDFED" fill-opacity="0.6"/>
</g>
</g>
<g opacity="0.6">
<path d="M48.337 92.5147C48.337 93.7583 47.9578 94.82 47.1995 95.6997C46.4512 96.5693 45.3946 97.1658 44.0296 97.4894V97.5652C45.6373 97.7674 46.8557 98.2578 47.6848 99.0364C48.5139 99.815 48.9285 100.867 48.9285 102.191C48.9285 104.102 48.2308 105.594 46.8354 106.665C45.4502 107.737 43.4634 108.273 40.8749 108.273C38.7313 108.273 36.8102 107.914 35.1115 107.196V103.602C36.8708 104.491 38.6403 104.936 40.4199 104.936C41.8253 104.936 42.8567 104.699 43.5139 104.223C44.1711 103.748 44.4998 103.02 44.4998 102.039C44.4998 101.049 44.1206 100.356 43.3622 99.9616C42.614 99.5571 41.3956 99.3549 39.707 99.3549H38.1904V96.1244H39.7222C41.2894 96.1244 42.427 95.9171 43.1347 95.5025C43.8425 95.088 44.1964 94.4004 44.1964 93.4398C44.1964 91.9232 43.246 91.1648 41.3451 91.1648C40.0205 91.1648 38.6049 91.6552 37.0983 92.636L35.1418 89.724C36.9517 88.4095 39.1206 87.7523 41.6484 87.7523C43.7111 87.7523 45.339 88.1719 46.5321 89.0111C47.7353 89.8402 48.337 91.0081 48.337 92.5147ZM64.3038 92.5147C64.3038 93.7583 63.9246 94.82 63.1662 95.6997C62.418 96.5693 61.3614 97.1658 59.9964 97.4894V97.5652C61.6041 97.7674 62.8225 98.2578 63.6516 99.0364C64.4807 99.815 64.8953 100.867 64.8953 102.191C64.8953 104.102 64.1976 105.594 62.8022 106.665C61.417 107.737 59.4302 108.273 56.8417 108.273C54.6981 108.273 52.777 107.914 51.0783 107.196V103.602C52.8376 104.491 54.6071 104.936 56.3867 104.936C57.7921 104.936 58.8235 104.699 59.4807 104.223C60.1379 103.748 60.4666 103.02 60.4666 102.039C60.4666 101.049 60.0874 100.356 59.329 99.9616C58.5808 99.5571 57.3624 99.3549 55.6738 99.3549H54.1571V96.1244H55.689C57.2562 96.1244 58.3938 95.9171 59.1015 95.5025C59.8093 95.088 60.1632 94.4004 60.1632 93.4398C60.1632 91.9232 59.2128 91.1648 57.3118 91.1648C55.9873 91.1648 54.5717 91.6552 53.0651 92.636L51.1086 89.724C52.9185 88.4095 55.0874 87.7523 57.6152 87.7523C59.6779 87.7523 61.3058 88.1719 62.4989 89.0111C63.7021 89.8402 64.3038 91.0081 64.3038 92.5147ZM71.8226 92.7573C71.398 93.819 71.1856 95.5733 71.1856 98.0202C71.1856 100.467 71.398 102.221 71.8226 103.283C72.2473 104.345 72.9551 104.876 73.946 104.876C74.9369 104.876 75.6497 104.345 76.0845 103.283C76.5193 102.211 76.7367 100.457 76.7367 98.0202C76.7367 95.5834 76.5142 93.8291 76.0693 92.7573C75.6346 91.6855 74.9217 91.1496 73.9308 91.1496C72.95 91.1496 72.2473 91.6855 71.8226 92.7573ZM66.9996 97.9292C66.9996 94.4813 67.5658 91.9232 68.6983 90.2548C69.8408 88.5763 71.5749 87.7371 73.9005 87.7371C76.2362 87.7371 77.9905 88.6117 79.1634 90.361C80.3464 92.1001 80.9379 94.6835 80.9379 98.1112C80.9379 101.539 80.3666 104.092 79.224 105.77C78.0815 107.439 76.3423 108.273 74.0067 108.273C71.671 108.273 69.9167 107.408 68.7438 105.679C67.581 103.95 66.9996 101.367 66.9996 97.9292Z" fill="#CCDFED"/>
<path d="M127.126 104.451V108H113.172V105.073L118.177 100.007C119.704 98.4398 120.675 97.3832 121.089 96.8372C121.939 95.7452 122.363 94.6835 122.363 93.6522C122.363 92.8736 122.146 92.2872 121.711 91.8928C121.286 91.4884 120.695 91.2861 119.937 91.2861C118.561 91.2861 117.05 91.9687 115.402 93.3337L113.111 90.6036C114.082 89.7846 114.896 89.1982 115.553 88.8443C116.868 88.1163 118.445 87.7523 120.285 87.7523C122.126 87.7523 123.632 88.2578 124.805 89.269C125.978 90.27 126.564 91.5693 126.564 93.1668C126.564 94.0768 126.403 94.9363 126.079 95.7452C125.766 96.5541 125.255 97.3883 124.547 98.2477C123.85 99.1072 122.662 100.305 120.983 101.842L118.42 104.254V104.451H127.126ZM133.188 101.038C133.188 102.12 133.472 103.035 134.038 103.784C134.614 104.532 135.342 104.906 136.222 104.906C137.112 104.906 137.794 104.603 138.269 103.996C138.755 103.389 138.997 102.56 138.997 101.509C138.997 100.447 138.765 99.6431 138.3 99.0971C137.845 98.541 137.177 98.2629 136.298 98.2629C135.428 98.2629 134.69 98.541 134.083 99.0971C133.487 99.6532 133.188 100.3 133.188 101.038ZM137.375 95.0324C139.164 95.0324 140.565 95.5885 141.576 96.7007C142.587 97.8129 143.092 99.3953 143.092 101.448C143.092 103.501 142.491 105.154 141.288 106.407C140.084 107.651 138.391 108.273 136.207 108.273C134.023 108.273 132.273 107.505 130.959 105.968C129.655 104.421 129.002 102.272 129.002 99.5217C129.002 95.5885 129.832 92.6562 131.49 90.725C133.158 88.7836 135.661 87.8129 138.997 87.8129C140.16 87.8129 141.055 87.8787 141.682 88.0101V91.3923C140.883 91.2103 140.079 91.1193 139.27 91.1193C136.449 91.1193 134.584 91.9838 133.674 93.7128C133.209 94.5723 132.941 95.7856 132.87 97.3529H133.052C133.942 95.8059 135.383 95.0324 137.375 95.0324ZM149.823 92.7573C149.398 93.819 149.186 95.5733 149.186 98.0202C149.186 100.467 149.398 102.221 149.823 103.283C150.247 104.345 150.955 104.876 151.946 104.876C152.937 104.876 153.65 104.345 154.085 103.283C154.519 102.211 154.737 100.457 154.737 98.0202C154.737 95.5834 154.514 93.8291 154.069 92.7573C153.635 91.6855 152.922 91.1496 151.931 91.1496C150.95 91.1496 150.247 91.6855 149.823 92.7573ZM145 97.9292C145 94.4813 145.566 91.9232 146.698 90.2548C147.841 88.5763 149.575 87.7371 151.9 87.7371C154.236 87.7371 155.99 88.6117 157.163 90.361C158.346 92.1001 158.938 94.6835 158.938 98.1112C158.938 101.539 158.367 104.092 157.224 105.77C156.081 107.439 154.342 108.273 152.007 108.273C149.671 108.273 147.917 107.408 146.744 105.679C145.581 103.95 145 101.367 145 97.9292Z" fill="#CCDFED"/>
<rect x="100.496" y="92.4969" width="2.11765" height="12" transform="rotate(45 100.496 92.4969)" fill="#CCDFED"/>
<rect x="101.988" y="100.981" width="2.11765" height="12" transform="rotate(135 101.988 100.981)" fill="#CCDFED"/>
</g>
<path d="M29.5551 13.89C30.0238 13.7507 30.5114 13.6557 31.0181 13.605C31.5374 13.5417 32.1581 13.51 32.8801 13.51C34.4508 13.51 35.5844 13.871 36.2811 14.593C36.9904 15.3023 37.3451 16.4613 37.3451 18.07C37.3451 19.2733 37.1614 20.1917 36.7941 20.825C36.4394 21.4583 35.9264 21.9333 35.2551 22.25L37.8201 27H35.2551L33.0701 22.725H31.8351V27H29.5551V13.89ZM32.8801 21.205C33.6274 21.205 34.1784 20.9707 34.5331 20.502C34.8878 20.0333 35.0651 19.2227 35.0651 18.07C35.0651 16.9173 34.8878 16.1067 34.5331 15.638C34.1784 15.1693 33.6274 14.935 32.8801 14.935H31.8351V21.205H32.8801ZM42.0981 27.19C41.1861 27.19 40.4641 26.9683 39.9321 26.525C39.4127 26.0817 39.1531 25.29 39.1531 24.15C39.1531 22.9973 39.4254 22.2057 39.9701 21.775C40.5147 21.3317 41.2874 21.11 42.2881 21.11C42.7314 21.11 43.2697 21.1733 43.9031 21.3V20.54C43.9031 19.818 43.7384 19.324 43.4091 19.058C43.0797 18.7793 42.5794 18.64 41.9081 18.64H40.0081V17.69C40.3121 17.5887 40.6794 17.5 41.1101 17.424C41.5407 17.348 41.9334 17.31 42.2881 17.31C43.2001 17.31 43.9347 17.3987 44.4921 17.576C45.0494 17.7533 45.4674 18.0763 45.7461 18.545C46.0374 19.0137 46.1831 19.6787 46.1831 20.54V27H44.5681L44.2831 26.43H44.1881C43.6561 26.9367 42.9594 27.19 42.0981 27.19ZM42.8581 25.86C43.0861 25.86 43.2887 25.822 43.4661 25.746C43.6561 25.67 43.8017 25.5813 43.9031 25.48V22.44H42.8581C42.4654 22.44 42.1297 22.573 41.8511 22.839C41.5724 23.105 41.4331 23.542 41.4331 24.15C41.4331 24.758 41.5724 25.195 41.8511 25.461C42.1297 25.727 42.4654 25.86 42.8581 25.86ZM51.8756 27.19C51.2296 27.19 50.666 27.1457 50.1846 27.057C49.716 26.9683 49.2346 26.8227 48.7406 26.62V13.7H51.0206V17.785C51.464 17.4683 52.0023 17.31 52.6356 17.31C53.7376 17.31 54.58 17.7027 55.1626 18.488C55.758 19.2607 56.0556 20.5147 56.0556 22.25C56.0556 24.0233 55.72 25.29 55.0486 26.05C54.39 26.81 53.3323 27.19 51.8756 27.19ZM51.8756 25.86C52.4963 25.86 52.965 25.594 53.2816 25.062C53.611 24.53 53.7756 23.5927 53.7756 22.25C53.7756 20.92 53.6236 19.989 53.3196 19.457C53.0156 18.9123 52.5976 18.64 52.0656 18.64C51.8503 18.64 51.6476 18.678 51.4576 18.754C51.2676 18.83 51.122 18.9187 51.0206 19.02V25.86H51.8756ZM60.5229 27.19C59.6109 27.19 58.8889 26.9683 58.3569 26.525C57.8375 26.0817 57.5779 25.29 57.5779 24.15C57.5779 22.9973 57.8502 22.2057 58.3949 21.775C58.9395 21.3317 59.7122 21.11 60.7129 21.11C61.1562 21.11 61.6945 21.1733 62.3279 21.3V20.54C62.3279 19.818 62.1632 19.324 61.8339 19.058C61.5045 18.7793 61.0042 18.64 60.3329 18.64H58.4329V17.69C58.7369 17.5887 59.1042 17.5 59.5349 17.424C59.9655 17.348 60.3582 17.31 60.7129 17.31C61.6249 17.31 62.3595 17.3987 62.9169 17.576C63.4742 17.7533 63.8922 18.0763 64.1709 18.545C64.4622 19.0137 64.6079 19.6787 64.6079 20.54V27H62.9929L62.7079 26.43H62.6129C62.0809 26.9367 61.3842 27.19 60.5229 27.19ZM61.2829 25.86C61.5109 25.86 61.7135 25.822 61.8909 25.746C62.0809 25.67 62.2265 25.5813 62.3279 25.48V22.44H61.2829C60.8902 22.44 60.5545 22.573 60.2759 22.839C59.9972 23.105 59.8579 23.542 59.8579 24.15C59.8579 24.758 59.9972 25.195 60.2759 25.461C60.5545 25.727 60.8902 25.86 61.2829 25.86ZM70.2054 27.19C69.2808 27.19 68.5588 26.962 68.0394 26.506C67.5201 26.0373 67.2604 25.1887 67.2604 23.96V19.115H66.2154V17.69H67.2604V15.41H69.5404V17.69H72.1054V18.735C71.7888 18.8363 71.4088 18.925 70.9654 19.001C70.5221 19.077 70.0788 19.115 69.6354 19.115H69.5404V23.96C69.5404 24.644 69.6608 25.1317 69.9014 25.423C70.1421 25.7143 70.4334 25.86 70.7754 25.86H72.4854V26.81C72.2448 26.9113 71.8964 27 71.4404 27.076C70.9844 27.152 70.5728 27.19 70.2054 27.19Z" fill="white"/>
</svg>
