<svg width="44" height="44" viewBox="0 0 44 44" fill="none" xmlns="http://www.w3.org/2000/svg">
<rect width="44" height="44" rx="8" fill="white"/>
<path fill-rule="evenodd" clip-rule="evenodd" d="M21.8041 32.9998C26.4797 33.0857 30.8709 30.16 32.4341 25.4904C34.3626 19.7294 31.2559 13.4961 25.4948 11.5676C19.7337 9.63903 13.5005 12.7457 11.5719 18.5068C10.8261 20.7349 10.8336 23.0342 11.4556 25.1263L16.7875 20.2527L13.6581 19.2052C14.3021 17.2819 15.5906 15.6402 17.3058 14.5577C19.0209 13.4751 21.0572 13.0183 23.0704 13.2643C25.0836 13.5104 26.95 14.4443 28.3539 15.9081C29.7578 17.3719 30.6129 19.2756 30.7747 21.2973C30.9365 23.319 30.395 25.3346 29.2418 27.003C28.0886 28.6714 26.3944 29.8902 24.446 30.4533C23.6453 30.6848 22.8218 30.7996 22 30.7993V32.9998H21.8041Z" fill="#063453"/>
<mask id="path-3-inside-1" fill="white">
<rect x="12.1016" y="27.7788" width="8.17246" height="8.17246" rx="1" transform="rotate(-45 12.1016 27.7788)"/>
</mask>
<rect x="12.1016" y="27.7788" width="8.17246" height="8.17246" rx="1" transform="rotate(-45 12.1016 27.7788)" stroke="#063453" stroke-width="4" mask="url(#path-3-inside-1)"/>
</svg>
